<svg width="198" height="31" viewBox="0 0 198 31" fill="none" xmlns="http://www.w3.org/2000/svg">
<path d="M13.2842 19.8425H5.76894L4.67752 23.5194H0L7.5464 1.33129H11.5067L19.0531 23.5194H14.3756L13.2842 19.8425ZM12.1927 16.1973L9.54214 7.32209L6.86037 16.1973H12.1927Z" fill="white"/>
<path d="M25.3717 23.8364C24.0412 23.8364 23.0225 23.4772 22.3157 22.7587C21.6296 22.0191 21.2866 20.9625 21.2866 19.589V0H25.2469V19.6524C25.2469 20.1172 25.3613 20.4659 25.5899 20.6984C25.8394 20.9097 26.2032 21.0153 26.6814 21.0153C27.1595 21.0153 27.752 20.878 28.4588 20.6033L29.0513 22.7587C28.1158 23.4772 26.8893 23.8364 25.3717 23.8364Z" fill="white"/>
<path d="M44.0584 7.67076V22.8855C44.0584 25.5692 43.4035 27.5873 42.0938 28.9397C40.7841 30.3132 38.8403 31 36.2625 31C35.0567 31 33.9133 30.8521 32.8323 30.5562C31.7721 30.2604 30.8262 29.8378 29.9946 29.2883L31.3355 26.5307C32.0839 26.911 32.8739 27.2069 33.7054 27.4182C34.537 27.6506 35.327 27.7669 36.0754 27.7669C37.489 27.7669 38.5389 27.3125 39.2249 26.4039C39.911 25.5164 40.254 24.1639 40.254 22.3466V21.8395C39.8382 22.41 39.2665 22.8538 38.5389 23.1708C37.8113 23.4666 36.9485 23.6145 35.9507 23.6145C33.7886 23.6145 32.1047 22.896 30.8989 21.4591C29.714 20.0222 29.1215 17.9935 29.1215 15.3732C29.1215 12.8374 29.6932 10.8722 30.8366 9.4775C31.98 8.06169 33.5911 7.35378 35.67 7.35378C37.8321 7.35378 39.4016 8.12508 40.3787 9.66769H40.4411L40.7529 7.67076H44.0584ZM40.0981 14.6125C40.0981 13.2389 39.807 12.1929 39.2249 11.4744C38.6428 10.7348 37.8009 10.365 36.6991 10.365C35.5349 10.365 34.6409 10.8088 34.0173 11.6963C33.3936 12.5627 33.0818 13.82 33.0818 15.4683C33.0818 17.1166 33.3832 18.3633 33.9861 19.2086C34.6098 20.0539 35.5141 20.4765 36.6991 20.4765C37.8009 20.4765 38.6428 20.1489 39.2249 19.4939C39.807 18.8177 40.0981 17.8667 40.0981 16.6411V14.6125Z" fill="white"/>
<path d="M54.5886 23.8364C52.0732 23.8364 50.1086 23.1074 48.695 21.6493C47.2813 20.1912 46.5745 18.1731 46.5745 15.5951C46.5745 13.017 47.2813 10.999 48.695 9.5409C50.1086 8.08282 52.0732 7.35378 54.5886 7.35378C57.1041 7.35378 59.0687 8.08282 60.4823 9.5409C61.9167 10.999 62.634 13.017 62.634 15.5951C62.634 18.1731 61.9167 20.1912 60.4823 21.6493C59.0687 23.1074 57.1041 23.8364 54.5886 23.8364ZM54.5886 20.8252C55.8568 20.8252 56.8546 20.3603 57.5822 19.4305C58.3099 18.5007 58.6737 17.2222 58.6737 15.5951C58.6737 13.968 58.3099 12.6895 57.5822 11.7597C56.8546 10.8299 55.8568 10.365 54.5886 10.365C53.3205 10.365 52.3226 10.8299 51.595 11.7597C50.8882 12.6895 50.5348 13.968 50.5348 15.5951C50.5348 17.2222 50.8882 18.5007 51.595 19.4305C52.3226 20.3603 53.3205 20.8252 54.5886 20.8252Z" fill="white"/>
<path d="M65.7555 1.33129H80.2558V4.97648H70.2459V10.0481H79.1644V13.6933H70.2459V19.8742H80.2558V23.5194H65.7555V1.33129Z" fill="white"/>
<path d="M87.4994 15.4683L82.2917 7.67076H86.6886L89.5575 12.362L92.4264 7.67076H96.8232L91.6468 15.4683L97.2598 23.5194H92.8006L89.5575 18.3528L86.3144 23.5194H81.8552L87.4994 15.4683Z" fill="white"/>
<path d="M106.257 23.8364C103.846 23.8364 101.944 23.1074 100.551 21.6493C99.1786 20.1701 98.4925 18.152 98.4925 15.5951C98.4925 13.017 99.1786 10.999 100.551 9.5409C101.944 8.08282 103.846 7.35378 106.257 7.35378C107.712 7.35378 108.981 7.62849 110.062 8.17791C111.143 8.72733 111.974 9.5092 112.556 10.5235L110.155 12.6472C109.76 11.9499 109.23 11.411 108.565 11.0307C107.92 10.6503 107.214 10.4601 106.444 10.4601C105.197 10.4601 104.22 10.9145 103.513 11.8231C102.806 12.7318 102.453 13.9891 102.453 15.5951C102.453 17.2011 102.806 18.4584 103.513 19.3671C104.22 20.2757 105.197 20.7301 106.444 20.7301C107.214 20.7301 107.92 20.5399 108.565 20.1595C109.209 19.758 109.739 19.2192 110.155 18.5429L112.556 20.6667C111.974 21.681 111.143 22.4629 110.062 23.0123C108.981 23.5617 107.712 23.8364 106.257 23.8364Z" fill="white"/>
<path d="M114.496 0H118.487V9.5409C118.965 8.86469 119.63 8.3364 120.483 7.95603C121.356 7.55453 122.302 7.35378 123.32 7.35378C125.087 7.35378 126.501 7.94547 127.561 9.12883C128.642 10.3122 129.183 11.9393 129.183 14.0102V23.5194H125.191V14.2955C125.191 13.0699 124.932 12.1084 124.412 11.411C123.892 10.7137 123.175 10.365 122.26 10.365C121.117 10.365 120.202 10.7771 119.516 11.6012C118.83 12.4042 118.487 13.5031 118.487 14.8977V23.5194H114.496V0Z" fill="white"/>
<path d="M136.96 23.8364C135.941 23.8364 135.026 23.6251 134.215 23.2025C133.405 22.7587 132.771 22.1564 132.313 21.3957C131.856 20.6138 131.627 19.7474 131.627 18.7965C131.627 17.1694 132.261 15.9226 133.529 15.0562C134.797 14.1898 136.606 13.7566 138.955 13.7566H141.388V13.091C141.388 12.2457 141.138 11.6012 140.639 11.1575C140.161 10.6926 139.475 10.4601 138.581 10.4601C137.646 10.4601 136.752 10.6292 135.899 10.9673C135.047 11.3054 134.351 11.7703 133.81 12.362L132.064 10.0164C132.916 9.19223 133.924 8.54772 135.089 8.08282C136.253 7.5968 137.458 7.35378 138.706 7.35378C140.785 7.35378 142.417 7.85037 143.602 8.84356C144.787 9.83674 145.379 11.2103 145.379 12.9642V20.1912C145.379 20.6772 145.41 21.2478 145.473 21.9029C145.556 22.5579 145.649 23.0968 145.753 23.5194H142.23C142.105 23.2447 142.011 22.9806 141.949 22.727C141.887 22.4523 141.835 22.0825 141.793 21.6176H141.731C140.546 23.0968 138.955 23.8364 136.96 23.8364ZM137.926 20.7935C138.924 20.7935 139.745 20.5399 140.39 20.0327C141.055 19.5044 141.388 18.8388 141.388 18.0358V16.4509H138.831C137.77 16.4509 136.949 16.6517 136.367 17.0532C135.806 17.4547 135.525 18.0358 135.525 18.7965C135.525 19.4305 135.733 19.9271 136.149 20.2863C136.585 20.6244 137.178 20.7935 137.926 20.7935Z" fill="white"/>
<path d="M148.663 11.8548C148.663 9.93183 148.621 8.53715 148.538 7.67076H152.28C152.384 8.55828 152.436 9.4775 152.436 10.4284H152.529C152.904 9.49864 153.558 8.75903 154.494 8.20961C155.45 7.63906 156.51 7.35378 157.675 7.35378C159.462 7.35378 160.814 7.9666 161.728 9.19223C162.643 10.4179 163.101 12.2246 163.101 14.6125V23.5194H159.14V14.5808C159.14 13.2072 158.922 12.2035 158.485 11.5695C158.049 10.9356 157.352 10.6186 156.396 10.6186C155.294 10.6186 154.39 11.0201 153.683 11.8231C152.997 12.605 152.654 13.6193 152.654 14.8661V23.5194H148.663V11.8548Z" fill="white"/>
<path d="M180.547 7.67076V22.8855C180.547 25.5692 179.892 27.5873 178.582 28.9397C177.273 30.3132 175.329 31 172.751 31C171.545 31 170.402 30.8521 169.321 30.5562C168.261 30.2604 167.315 29.8378 166.483 29.2883L167.824 26.5307C168.573 26.911 169.363 27.2069 170.194 27.4182C171.026 27.6506 171.816 27.7669 172.564 27.7669C173.978 27.7669 175.027 27.3125 175.714 26.4039C176.4 25.5164 176.743 24.1639 176.743 22.3466V21.8395C176.327 22.41 175.755 22.8538 175.027 23.1708C174.3 23.4666 173.437 23.6145 172.439 23.6145C170.277 23.6145 168.593 22.896 167.388 21.4591C166.203 20.0222 165.61 17.9935 165.61 15.3732C165.61 12.8374 166.182 10.8722 167.325 9.4775C168.469 8.06169 170.08 7.35378 172.159 7.35378C174.321 7.35378 175.89 8.12508 176.867 9.66769H176.93L177.242 7.67076H180.547ZM176.587 14.6125C176.587 13.2389 176.296 12.1929 175.714 11.4744C175.131 10.7348 174.289 10.365 173.188 10.365C172.023 10.365 171.13 10.8088 170.506 11.6963C169.882 12.5627 169.57 13.82 169.57 15.4683C169.57 17.1166 169.872 18.3633 170.475 19.2086C171.098 20.0539 172.003 20.4765 173.188 20.4765C174.289 20.4765 175.131 20.1489 175.714 19.4939C176.296 18.8177 176.587 17.8667 176.587 16.6411V14.6125Z" fill="white"/>
<path d="M198 17.0849H187.148C187.481 19.3248 188.759 20.4448 190.984 20.4448C191.898 20.4448 192.688 20.2863 193.354 19.9693C194.04 19.6524 194.705 19.1241 195.349 18.3845L197.501 20.4765C196.898 21.4908 195.983 22.3044 194.757 22.9172C193.551 23.53 192.221 23.8364 190.765 23.8364C188.333 23.8364 186.441 23.1179 185.09 21.681C183.739 20.2229 183.063 18.2154 183.063 15.6585C183.063 13.0804 183.739 11.0518 185.09 9.5726C186.462 8.09339 188.344 7.35378 190.734 7.35378C193.021 7.35378 194.798 8.08282 196.067 9.5409C197.356 10.999 198 13.0276 198 15.6268V17.0849ZM194.102 14.137C194.102 13.0593 193.79 12.214 193.167 11.6012C192.564 10.9673 191.722 10.6503 190.641 10.6503C189.664 10.6503 188.874 10.9778 188.271 11.6329C187.668 12.2669 187.283 13.165 187.117 14.3272H194.102V14.137Z" fill="white"/>
</svg>
